<?xml version="1.0" standalone="no"?>
<svg xmlns:xlink="http://www.w3.org/1999/xlink" id="wave" style="transform:rotate(180deg); transition: 0.3s" viewBox="0 0 1440 490" version="1.1" xmlns="http://www.w3.org/2000/svg"><defs><linearGradient id="sw-gradient-0" x1="0" x2="0" y1="1" y2="0"><stop stop-color="rgba(176, 255, 250, 1)" offset="0%"/><stop stop-color="rgba(30, 166, 129, 1)" offset="100%"/></linearGradient></defs><path style="transform:translate(0, 0px); opacity:1" fill="url(#sw-gradient-0)" d="M0,196L34.3,171.5C68.6,147,137,98,206,89.8C274.3,82,343,114,411,147C480,180,549,212,617,261.3C685.7,310,754,376,823,359.3C891.4,343,960,245,1029,236.8C1097.1,229,1166,310,1234,359.3C1302.9,408,1371,425,1440,375.7C1508.6,327,1577,212,1646,155.2C1714.3,98,1783,98,1851,81.7C1920,65,1989,33,2057,73.5C2125.7,114,2194,229,2263,228.7C2331.4,229,2400,114,2469,73.5C2537.1,33,2606,65,2674,73.5C2742.9,82,2811,65,2880,122.5C2948.6,180,3017,310,3086,367.5C3154.3,425,3223,408,3291,400.2C3360,392,3429,392,3497,383.8C3565.7,376,3634,359,3703,326.7C3771.4,294,3840,245,3909,204.2C3977.1,163,4046,131,4114,155.2C4182.9,180,4251,261,4320,318.5C4388.6,376,4457,408,4526,400.2C4594.3,392,4663,343,4731,334.8C4800,327,4869,359,4903,375.7L4937.1,392L4937.1,490L4902.9,490C4868.6,490,4800,490,4731,490C4662.9,490,4594,490,4526,490C4457.1,490,4389,490,4320,490C4251.4,490,4183,490,4114,490C4045.7,490,3977,490,3909,490C3840,490,3771,490,3703,490C3634.3,490,3566,490,3497,490C3428.6,490,3360,490,3291,490C3222.9,490,3154,490,3086,490C3017.1,490,2949,490,2880,490C2811.4,490,2743,490,2674,490C2605.7,490,2537,490,2469,490C2400,490,2331,490,2263,490C2194.3,490,2126,490,2057,490C1988.6,490,1920,490,1851,490C1782.9,490,1714,490,1646,490C1577.1,490,1509,490,1440,490C1371.4,490,1303,490,1234,490C1165.7,490,1097,490,1029,490C960,490,891,490,823,490C754.3,490,686,490,617,490C548.6,490,480,490,411,490C342.9,490,274,490,206,490C137.1,490,69,490,34,490L0,490Z"/><defs><linearGradient id="sw-gradient-1" x1="0" x2="0" y1="1" y2="0"><stop stop-color="rgba(176, 255, 250, 1)" offset="0%"/><stop stop-color="rgba(176, 255, 250, 1)" offset="100%"/></linearGradient></defs><path style="transform:translate(0, 50px); opacity:0.9" fill="url(#sw-gradient-1)" d="M0,441L34.3,424.7C68.6,408,137,376,206,310.3C274.3,245,343,147,411,155.2C480,163,549,278,617,343C685.7,408,754,425,823,416.5C891.4,408,960,376,1029,326.7C1097.1,278,1166,212,1234,155.2C1302.9,98,1371,49,1440,49C1508.6,49,1577,98,1646,171.5C1714.3,245,1783,343,1851,318.5C1920,294,1989,147,2057,138.8C2125.7,131,2194,261,2263,277.7C2331.4,294,2400,196,2469,187.8C2537.1,180,2606,261,2674,269.5C2742.9,278,2811,212,2880,212.3C2948.6,212,3017,278,3086,318.5C3154.3,359,3223,376,3291,392C3360,408,3429,425,3497,416.5C3565.7,408,3634,376,3703,375.7C3771.4,376,3840,408,3909,351.2C3977.1,294,4046,147,4114,114.3C4182.9,82,4251,163,4320,196C4388.6,229,4457,212,4526,236.8C4594.3,261,4663,327,4731,302.2C4800,278,4869,163,4903,106.2L4937.1,49L4937.1,490L4902.9,490C4868.6,490,4800,490,4731,490C4662.9,490,4594,490,4526,490C4457.1,490,4389,490,4320,490C4251.4,490,4183,490,4114,490C4045.7,490,3977,490,3909,490C3840,490,3771,490,3703,490C3634.3,490,3566,490,3497,490C3428.6,490,3360,490,3291,490C3222.9,490,3154,490,3086,490C3017.1,490,2949,490,2880,490C2811.4,490,2743,490,2674,490C2605.7,490,2537,490,2469,490C2400,490,2331,490,2263,490C2194.3,490,2126,490,2057,490C1988.6,490,1920,490,1851,490C1782.9,490,1714,490,1646,490C1577.1,490,1509,490,1440,490C1371.4,490,1303,490,1234,490C1165.7,490,1097,490,1029,490C960,490,891,490,823,490C754.3,490,686,490,617,490C548.6,490,480,490,411,490C342.9,490,274,490,206,490C137.1,490,69,490,34,490L0,490Z"/><defs><linearGradient id="sw-gradient-2" x1="0" x2="0" y1="1" y2="0"><stop stop-color="rgba(176, 255, 250, 1)" offset="0%"/><stop stop-color="rgba(94.384, 186.661, 161.556, 1)" offset="100%"/></linearGradient></defs><path style="transform:translate(0, 100px); opacity:0.8" fill="url(#sw-gradient-2)" d="M0,294L34.3,285.8C68.6,278,137,261,206,261.3C274.3,261,343,278,411,236.8C480,196,549,98,617,73.5C685.7,49,754,98,823,163.3C891.4,229,960,310,1029,310.3C1097.1,310,1166,229,1234,204.2C1302.9,180,1371,212,1440,204.2C1508.6,196,1577,147,1646,130.7C1714.3,114,1783,131,1851,179.7C1920,229,1989,310,2057,326.7C2125.7,343,2194,294,2263,261.3C2331.4,229,2400,212,2469,204.2C2537.1,196,2606,196,2674,179.7C2742.9,163,2811,131,2880,171.5C2948.6,212,3017,327,3086,334.8C3154.3,343,3223,245,3291,196C3360,147,3429,147,3497,147C3565.7,147,3634,147,3703,138.8C3771.4,131,3840,114,3909,130.7C3977.1,147,4046,196,4114,179.7C4182.9,163,4251,82,4320,89.8C4388.6,98,4457,196,4526,236.8C4594.3,278,4663,261,4731,228.7C4800,196,4869,147,4903,122.5L4937.1,98L4937.1,490L4902.9,490C4868.6,490,4800,490,4731,490C4662.9,490,4594,490,4526,490C4457.1,490,4389,490,4320,490C4251.4,490,4183,490,4114,490C4045.7,490,3977,490,3909,490C3840,490,3771,490,3703,490C3634.3,490,3566,490,3497,490C3428.6,490,3360,490,3291,490C3222.9,490,3154,490,3086,490C3017.1,490,2949,490,2880,490C2811.4,490,2743,490,2674,490C2605.7,490,2537,490,2469,490C2400,490,2331,490,2263,490C2194.3,490,2126,490,2057,490C1988.6,490,1920,490,1851,490C1782.9,490,1714,490,1646,490C1577.1,490,1509,490,1440,490C1371.4,490,1303,490,1234,490C1165.7,490,1097,490,1029,490C960,490,891,490,823,490C754.3,490,686,490,617,490C548.6,490,480,490,411,490C342.9,490,274,490,206,490C137.1,490,69,490,34,490L0,490Z"/></svg>